<?xml version="1.0" encoding="utf-8"?>
<!-- Generator: Adobe Illustrator 25.0.0, SVG Export Plug-In . SVG Version: 6.00 Build 0)  -->
<svg version="1.1" id="Layer_1" xmlns="http://www.w3.org/2000/svg" xmlns:xlink="http://www.w3.org/1999/xlink" x="0px" y="0px"
	 viewBox="0 0 40 40" style="enable-background:new 0 0 40 40;" xml:space="preserve">
<style type="text/css">
	.st0{fill:#21262C;}
	.st1{fill:url(#SVGID_1_);}
	.st2{fill:url(#SVGID_2_);}
	.st3{fill:url(#SVGID_3_);}
	.st4{fill:url(#SVGID_4_);}
	.st5{fill:#88D39A;}
	.st6{fill:#86D79D;}
	.st7{fill:url(#SVGID_5_);}
	.st8{fill:url(#SVGID_6_);}
	.st9{fill:#FA95A3;}
</style>
<circle class="st0" cx="19.86" cy="20.41" r="16.14"/>
<linearGradient id="SVGID_1_" gradientUnits="userSpaceOnUse" x1="13.7299" y1="18.7356" x2="16.8735" y2="26.1163">
	<stop  offset="0" style="stop-color:#2E2C37"/>
	<stop  offset="0.5246" style="stop-color:#EDB046"/>
	<stop  offset="1" style="stop-color:#212429"/>
</linearGradient>
<polygon class="st1" points="13.07,16.22 18.45,27.88 17.28,29.02 12,15.87 "/>
<linearGradient id="SVGID_2_" gradientUnits="userSpaceOnUse" x1="16.4716" y1="11.5089" x2="18.704" y2="25.5868">
	<stop  offset="0" style="stop-color:#2E2C37"/>
	<stop  offset="0.5246" style="stop-color:#F5D043"/>
	<stop  offset="1" style="stop-color:#212429"/>
</linearGradient>
<polygon class="st2" points="19.63,27.15 17.9,27.4 14.95,8.7 17.29,9.76 "/>
<linearGradient id="SVGID_3_" gradientUnits="userSpaceOnUse" x1="23.9571" y1="10.5246" x2="19.3555" y2="26.3338">
	<stop  offset="0" style="stop-color:#2E2C37"/>
	<stop  offset="0.5246" style="stop-color:#87ACFA"/>
	<stop  offset="1" style="stop-color:#212429"/>
</linearGradient>
<polygon class="st3" points="25.57,8.32 20.26,28.17 17.52,27.68 24.06,8.16 "/>
<linearGradient id="SVGID_4_" gradientUnits="userSpaceOnUse" x1="28.6916" y1="15.785" x2="22.4955" y2="27.1749">
	<stop  offset="0" style="stop-color:#2E2C37"/>
	<stop  offset="0.5246" style="stop-color:#CA90E5"/>
	<stop  offset="1" style="stop-color:#212429"/>
</linearGradient>
<polygon class="st4" points="22.4,28.77 30.86,15.02 28.92,13.71 27.38,14.97 20.38,28.58 "/>
<path class="st5" d="M11.73,14.29l0.4,0.54l2.58,2.66c0,0-3.08,0.54-4.45-1.27c-0.91-1.14-1.3-2.7-1.27-4.46c0,0,2.6-0.4,4.52,0.84
	c1.07,0.69,1.95,2.45,1.65,4.47l-2.74-2.37L11.73,14.29z"/>
<path class="st5" d="M13.3,19.56c0,0-0.03,0.01-0.16-0.08c-0.13-0.09-1.41-1.18-1.41-1.18s-0.2,1.35,0.57,2.01s1.97,0.67,2.35,0.62
	c0,0,0.28-1.53-0.68-2.42c-0.52-0.43-1.12-0.6-2-0.46C11.97,18.06,13.32,19.42,13.3,19.56z"/>
<path class="st5" d="M12.48,11.56c0,0-0.97-0.2-1.05-0.87c-0.09-0.57,0.13-1.13,0.13-1.13s0.96,0.25,1.12,0.76s0.08,0.71-0.07,1.12
	l-0.53-0.91c0,0-0.01-0.04-0.04-0.03c-0.03,0.01,0,0.08,0.04,0.19S12.43,11.5,12.48,11.56z"/>
<path class="st5" d="M19.18,10.06c0,0,0.01,0.36,0.06,0.55c0.05,0.19,1.18,3.53,1.18,3.53s-2.92-0.84-3.4-2.96
	c-0.48-2.13,0.77-4.51,0.77-4.51s3.06,0.89,3.79,2.92c0.74,2.02-0.09,3.6-0.53,4.34C21.07,13.93,19.54,10.39,19.18,10.06z"/>
<path class="st5" d="M24.23,12.77c0,0-0.82,1.5-1.33,2.1c0,0,1.83,0.19,2.58-1.4c0.46-0.87,0.1-2.53,0.1-2.53s-1.55,0.14-2.52,1.02
	c-0.97,0.88-0.64,2.56-0.51,2.69C22.55,14.64,23.98,12.87,24.23,12.77z"/>
<path class="st5" d="M26.32,8.94c0,0-0.27,0.7-0.47,0.99c0,0,0.92-0.05,1.09-0.83c0.11-0.5-0.09-1.06-0.09-1.06s-1.07,0.22-1.25,0.9
	c-0.11,0.35,0.08,0.9,0.08,0.9L26.32,8.94z"/>
<path class="st5" d="M25.21,16.91c0,0-0.2-3.36,2.55-4.43c1.58-0.56,3.3-0.46,4.13-0.2c0,0,0.05,2.4-1.69,4.29
	c-1.13,1.24-3.65,1.16-4.59,0.85c0,0,3.15-2.64,3.31-2.9c0,0,0.01-0.07-0.2-0.01C28.52,14.57,25.21,16.91,25.21,16.91z"/>
<path class="st6" d="M28.42,19.33l0.89-1.42c0,0-1.36-0.08-1.81,1.13c-0.26,0.77,0,1.64,0,1.64s1.62-0.09,2.07-1.23
	c0.19-0.62-0.04-1.37-0.04-1.37S28.69,19.26,28.42,19.33z"/>
<g>
	<linearGradient id="SVGID_5_" gradientUnits="userSpaceOnUse" x1="17.6547" y1="25.4624" x2="17.6547" y2="32.8431">
		<stop  offset="0" style="stop-color:#FEE06E"/>
		<stop  offset="0.5267" style="stop-color:#D0EA8F"/>
		<stop  offset="1" style="stop-color:#94EEB1"/>
	</linearGradient>
	<path class="st7" d="M18.8,32.95h-0.84c-0.01,0-0.01,0-0.02,0c-0.24-0.02-0.69-0.21-0.68-0.74c0.01-0.46,0-1.47,0-1.62
		c-0.03-0.11-0.22-0.82-0.85-1.22c-0.05-0.03-0.08-0.08-0.08-0.14c0-0.06,0.02-0.11,0.06-0.15c0.32-0.28,0.83-0.85,0.82-1.14
		c-0.01-0.49,0.04-1.78,0.04-1.83c0.01-0.25,0.19-0.72,0.78-0.72h0.77c0.1,0,0.18,0.08,0.18,0.18v1.29c0,0.1-0.08,0.18-0.18,0.18
		c-0.1,0-0.18-0.08-0.18-0.18v-1.11h-0.59c-0.37,0-0.41,0.31-0.41,0.37c0,0.06-0.05,1.34-0.04,1.81c0.01,0.43-0.5,0.99-0.78,1.27
		c0.65,0.52,0.82,1.3,0.82,1.33c0,0.01,0,0.02,0,0.04c0,0.01,0.01,1.15,0,1.65c0,0.3,0.27,0.36,0.34,0.37h0.65v-1.15
		c0-0.1,0.08-0.18,0.18-0.18c0.1,0,0.18,0.08,0.18,0.18v1.34C18.98,32.87,18.9,32.95,18.8,32.95z"/>
</g>
<g>
	<linearGradient id="SVGID_6_" gradientUnits="userSpaceOnUse" x1="19.4108" y1="29.4171" x2="22.2355" y2="29.2348">
		<stop  offset="0" style="stop-color:#A7E5F2"/>
		<stop  offset="0.5267" style="stop-color:#AFC1F3"/>
		<stop  offset="1" style="stop-color:#D196F2"/>
	</linearGradient>
	<path class="st8" d="M23.6,32.97h-1.12c-0.12,0-0.23-0.05-0.31-0.13l-3.03-3.17c-0.33-0.34-0.16-0.82-0.02-1.02l0.01-0.02
		l0.01-0.01l3.01-3.03c0.13-0.13,0.31-0.21,0.49-0.21l1.01-0.02c0.18,0,0.35,0.1,0.43,0.27c0.07,0.17,0.04,0.37-0.09,0.5l-2.76,2.83
		c-0.09,0.1-0.07,0.34,0.04,0.46l2.69,2.72c0.14,0.14,0.18,0.35,0.1,0.53C23.97,32.86,23.8,32.97,23.6,32.97z M19.43,29.39
		l3.03,3.17c0,0,0.01,0,0.01,0h1.12c0.04,0,0.06-0.03,0.07-0.05c0.01-0.02,0.02-0.05-0.02-0.08l-2.69-2.72
		c-0.26-0.27-0.28-0.76-0.04-1.02l0,0l2.77-2.83c0.01-0.01,0.02-0.03,0.01-0.05c-0.01-0.02-0.02-0.03-0.04-0.03l-1.01,0.02
		c-0.08,0-0.16,0.03-0.21,0.09l-2.99,3.01C19.41,28.96,19.27,29.22,19.43,29.39L19.43,29.39z"/>
</g>
<path class="st9" d="M9.01,18.04l-2.34-1.46c0,0,1.78-0.8,2.95,0c0.56,0.37,1.4,1.37,1.57,2.57c0,0-1.53,0.87-3.25,0.18
	c-0.57-0.3-1.16-0.9-1.47-2.35L9.01,18.04z"/>
<path class="st9" d="M18.99,14.29c0,0,1.32-0.07,1.06,1.35C20.05,15.64,18.73,15.75,18.99,14.29z"/>
<g>
	<path class="st9" d="M14.24,8.1l1.32,4.78c0,0,1.21-1.53,0.64-3.2C15.92,8.93,14.75,8.23,14.24,8.1z"/>
	<path class="st9" d="M14.86,10.81l-1.03-2.6c0,0-0.8,1.28-0.62,2.25c0.17,0.96,0.68,1.64,2.35,2.42l-0.13-0.46
		c0,0-1.52-0.58-1.86-1.64c-0.14-0.5,0.01-1.52,0.27-1.88l0.81,1.7L14.86,10.81z"/>
</g>
<g>
	<path class="st9" d="M23.08,11.06l1.07-4.16c0,0-1.63,0.73-1.87,2.22C22.19,9.81,22.75,10.75,23.08,11.06z"/>
	<path class="st9" d="M23.81,8.81l-0.4,2.28c0,0,1.17-0.65,1.47-1.44c0.31-0.81,0.09-1.61-0.73-2.75l-0.09,0.4
		c0,0,0.81,1.05,0.65,1.99c-0.1,0.43-0.63,1.13-0.96,1.3l0.12-1.48L23.81,8.81z"/>
</g>
<path class="st9" d="M16.29,12.92c0,0,0.61,1.97,0.79,1.91c0.17-0.07-0.44-2.06-0.44-2.06s1.86,0.68,1.7,2.1s-0.71,1.91-0.71,1.91
	s-1.53-0.68-1.8-1.66S15.94,13.23,16.29,12.92z"/>
<path class="st9" d="M21.43,6.46c0,0-0.54,0.42-0.48,1.14c0.05,0.51,0.7,0.94,0.7,0.94s0.48-0.45,0.48-1.04S21.43,6.46,21.43,6.46z"
	/>
<path class="st9" d="M26.44,11.93c0,0,1.31,0.46,2.11-0.51c0.5-0.63,0.53-1.76,0.53-1.76s-0.76-0.37-1.92,0.17
	c-0.61,0.3-0.99,1.35-0.9,1.9l1.54-1.07c0,0,0.02,0.02-0.03,0.06S26.44,11.93,26.44,11.93z"/>
<path class="st9" d="M27.14,18.14c0,0,0.22,1.38-1.31,1.21C25.83,19.36,25.69,17.95,27.14,18.14z"/>
<path class="st9" d="M32.61,15.76l-1.29,5.09c0,0,1.74-0.76,2.07-1.98c0.16-0.62,0.1-1.72-0.31-2.19c0,0-0.76,1.82-0.89,1.98
	c-0.13,0.16-0.23,0.29-0.25,0.3c-0.02,0.01,0.1-0.43,0.24-0.72c0.14-0.29,0.9-2.29,0.9-2.29s1.18,1.66,0.62,3.08
	c-0.3,0.8-1.23,1.82-2.63,2.34c0,0-1.16-1.6-0.84-3.4C30.5,16.84,32.06,15.86,32.61,15.76z"/>
</svg>
